# xmcd CD database file
#
# Track frame offsets:
#	150
#	15789
#	28530
#	48624
#	62799
#	76930
#	100418
#	114274
#	129575
#	144967
#	167479
#	179093
#	190486
#	201908
#	215510
#	266036
#
# Disc length: 4106 seconds
#
# Revision: 0
# Processed by: cddbd v1.5.1PL0 Copyright (c) Steve Scherf et al.
# Submitted via: CDex 1.50beta9
#
DISCID=e1100810
DTITLE=Thelonious Monk - Four in One - CD 3
DYEAR=1900
DGENRE=Jazz
TTITLE0=Four in One (Alternate Take)
TTITLE1=Criss Cross (Alternate Take)
TTITLE2=Ask me now (Alternate Take)
TTITLE3=Skippy (Alternate Take)
TTITLE4=Hornin' in
TTITLE5=Round about Midnight
TTITLE6=Evidence
TTITLE7=Smoke gets in your Eyes
TTITLE8=Well you needn't
TTITLE9=Reflections
TTITLE10=Wee See
TTITLE11=Eronel
TTITLE12=Off Minor
TTITLE13=Hackensack
TTITLE14=Bag's Groove (Take One)
TTITLE15=Bag's Groove (Take Two)
EXTD=
EXTT0=
EXTT1=
EXTT2=
EXTT3=
EXTT4=
EXTT5=
EXTT6=
EXTT7=
EXTT8=
EXTT9=
EXTT10=
EXTT11=
EXTT12=
EXTT13=
EXTT14=
EXTT15=
PLAYORDER=
